<?xml version="1.0" encoding="utf-8"?>
<!-- Generator: Adobe Illustrator 22.1.0, SVG Export Plug-In . SVG Version: 6.00 Build 0)  -->
<svg version="1.1" id="Layer_1" xmlns="http://www.w3.org/2000/svg" xmlns:xlink="http://www.w3.org/1999/xlink" x="0px" y="0px"
	 viewBox="0 0 2387.5 768" style="enable-background:new 0 0 2387.5 768;" xml:space="preserve">
<style type="text/css">
	.st0{fill:url(#SVGID_1_);}
	.st1{fill:url(#SVGID_2_);}
	.st2{fill:url(#SVGID_3_);}
	.st3{fill:url(#SVGID_4_);}
	.st4{fill:url(#SVGID_5_);}
	.st5{fill:url(#SVGID_6_);}
	.st6{fill:url(#SVGID_7_);}
	.st7{fill:url(#SVGID_8_);}
	.st8{fill:url(#SVGID_9_);}
	.st9{fill:url(#SVGID_10_);}
	.st10{fill:url(#SVGID_11_);}
	.st11{fill:url(#SVGID_12_);}
	.st12{fill:url(#SVGID_13_);}
	.st13{fill:url(#SVGID_14_);}
	.st14{fill:url(#SVGID_15_);}
	.st15{fill:url(#SVGID_16_);}
	.st16{fill:url(#SVGID_17_);}
	.st17{fill:url(#SVGID_18_);}
</style>
<g>
	
		<linearGradient id="SVGID_1_" gradientUnits="userSpaceOnUse" x1="19.0154" y1="401.9991" x2="239.0154" y2="401.9991" gradientTransform="matrix(1 0 0 -1 0 768)">
		<stop  offset="0" style="stop-color:#D4AF37"/>
		<stop  offset="0.4573" style="stop-color:#D2AE38"/>
		<stop  offset="0.6221" style="stop-color:#CBAA3D"/>
		<stop  offset="0.7395" style="stop-color:#C0A345"/>
		<stop  offset="0.8344" style="stop-color:#AF9951"/>
		<stop  offset="0.9157" style="stop-color:#998C61"/>
		<stop  offset="0.9865" style="stop-color:#7E7C74"/>
		<stop  offset="1" style="stop-color:#787878"/>
	</linearGradient>
	<circle class="st0" cx="129" cy="366" r="110"/>
	
		<linearGradient id="SVGID_2_" gradientUnits="userSpaceOnUse" x1="19.0154" y1="401.9991" x2="239.0154" y2="401.9991" gradientTransform="matrix(1 0 0 -1 0 768)">
		<stop  offset="0" style="stop-color:#D4AF37"/>
		<stop  offset="1" style="stop-color:#000000"/>
	</linearGradient>
	<path class="st1" d="M129,257c29.1,0,56.5,11.3,77.1,31.9s31.9,48,31.9,77.1s-11.3,56.5-31.9,77.1c-20.6,20.6-48,31.9-77.1,31.9
		s-56.5-11.3-77.1-31.9S20,395.1,20,366s11.3-56.5,31.9-77.1S99.9,257,129,257 M129,256c-60.8,0-110,49.2-110,110s49.2,110,110,110
		s110-49.2,110-110S189.8,256,129,256L129,256z"/>
</g>
<g>
	
		<linearGradient id="SVGID_3_" gradientUnits="userSpaceOnUse" x1="273.0154" y1="401.9991" x2="493.0154" y2="401.9991" gradientTransform="matrix(1 0 0 -1 0 768)">
		<stop  offset="0" style="stop-color:#D4AF37"/>
		<stop  offset="0.4573" style="stop-color:#D2AE38"/>
		<stop  offset="0.6221" style="stop-color:#CBAA3D"/>
		<stop  offset="0.7395" style="stop-color:#C0A345"/>
		<stop  offset="0.8344" style="stop-color:#AF9951"/>
		<stop  offset="0.9157" style="stop-color:#998C61"/>
		<stop  offset="0.9865" style="stop-color:#7E7C74"/>
		<stop  offset="1" style="stop-color:#787878"/>
	</linearGradient>
	<circle class="st2" cx="383" cy="366" r="110"/>
	
		<linearGradient id="SVGID_4_" gradientUnits="userSpaceOnUse" x1="273.0154" y1="401.9991" x2="493.0154" y2="401.9991" gradientTransform="matrix(1 0 0 -1 0 768)">
		<stop  offset="0" style="stop-color:#D4AF37"/>
		<stop  offset="1" style="stop-color:#000000"/>
	</linearGradient>
	<path class="st3" d="M383,257c29.1,0,56.5,11.3,77.1,31.9s31.9,48,31.9,77.1s-11.3,56.5-31.9,77.1c-20.6,20.6-48,31.9-77.1,31.9
		s-56.5-11.3-77.1-31.9S274,395.1,274,366s11.3-56.5,31.9-77.1S353.9,257,383,257 M383,256c-60.8,0-110,49.2-110,110
		s49.2,110,110,110s110-49.2,110-110S443.8,256,383,256L383,256z"/>
</g>
<g>
	
		<linearGradient id="SVGID_5_" gradientUnits="userSpaceOnUse" x1="527.0154" y1="401.9991" x2="747.0154" y2="401.9991" gradientTransform="matrix(1 0 0 -1 0 768)">
		<stop  offset="0" style="stop-color:#D4AF37"/>
		<stop  offset="0.4573" style="stop-color:#D2AE38"/>
		<stop  offset="0.6221" style="stop-color:#CBAA3D"/>
		<stop  offset="0.7395" style="stop-color:#C0A345"/>
		<stop  offset="0.8344" style="stop-color:#AF9951"/>
		<stop  offset="0.9157" style="stop-color:#998C61"/>
		<stop  offset="0.9865" style="stop-color:#7E7C74"/>
		<stop  offset="1" style="stop-color:#787878"/>
	</linearGradient>
	<circle class="st4" cx="637" cy="366" r="110"/>
	
		<linearGradient id="SVGID_6_" gradientUnits="userSpaceOnUse" x1="527.0154" y1="401.9991" x2="747.0154" y2="401.9991" gradientTransform="matrix(1 0 0 -1 0 768)">
		<stop  offset="0" style="stop-color:#D4AF37"/>
		<stop  offset="1" style="stop-color:#000000"/>
	</linearGradient>
	<path class="st5" d="M637,257c29.1,0,56.5,11.3,77.1,31.9s31.9,48,31.9,77.1s-11.3,56.5-31.9,77.1S666.1,475,637,475
		s-56.5-11.3-77.1-31.9S528,395.1,528,366s11.3-56.5,31.9-77.1S607.9,257,637,257 M637,256c-60.8,0-110,49.2-110,110
		s49.2,110,110,110s110-49.2,110-110S697.8,256,637,256L637,256z"/>
</g>
<g>
	
		<linearGradient id="SVGID_7_" gradientUnits="userSpaceOnUse" x1="768.9984" y1="401.9991" x2="988.9984" y2="401.9991" gradientTransform="matrix(1 0 0 -1 0 768)">
		<stop  offset="0" style="stop-color:#D4AF37"/>
		<stop  offset="0.4573" style="stop-color:#D2AE38"/>
		<stop  offset="0.6221" style="stop-color:#CBAA3D"/>
		<stop  offset="0.7395" style="stop-color:#C0A345"/>
		<stop  offset="0.8344" style="stop-color:#AF9951"/>
		<stop  offset="0.9157" style="stop-color:#998C61"/>
		<stop  offset="0.9865" style="stop-color:#7E7C74"/>
		<stop  offset="1" style="stop-color:#787878"/>
	</linearGradient>
	<circle class="st6" cx="879" cy="366" r="110"/>
	
		<linearGradient id="SVGID_8_" gradientUnits="userSpaceOnUse" x1="768.9984" y1="401.9991" x2="988.9984" y2="401.9991" gradientTransform="matrix(1 0 0 -1 0 768)">
		<stop  offset="0" style="stop-color:#D4AF37"/>
		<stop  offset="1" style="stop-color:#000000"/>
	</linearGradient>
	<path class="st7" d="M879,257c29.1,0,56.5,11.3,77.1,31.9s31.9,48,31.9,77.1s-11.3,56.5-31.9,77.1c-20.6,20.6-48,31.9-77.1,31.9
		s-56.5-11.3-77.1-31.9S770,395.1,770,366s11.3-56.5,31.9-77.1S849.9,257,879,257 M879,256c-60.8,0-110,49.2-110,110
		s49.2,110,110,110s110-49.2,110-110S939.8,256,879,256L879,256z"/>
</g>
<g>
	
		<linearGradient id="SVGID_9_" gradientUnits="userSpaceOnUse" x1="1022.9984" y1="401.9991" x2="1242.9983" y2="401.9991" gradientTransform="matrix(1 0 0 -1 0 768)">
		<stop  offset="0" style="stop-color:#D4AF37"/>
		<stop  offset="0.4573" style="stop-color:#D2AE38"/>
		<stop  offset="0.6221" style="stop-color:#CBAA3D"/>
		<stop  offset="0.7395" style="stop-color:#C0A345"/>
		<stop  offset="0.8344" style="stop-color:#AF9951"/>
		<stop  offset="0.9157" style="stop-color:#998C61"/>
		<stop  offset="0.9865" style="stop-color:#7E7C74"/>
		<stop  offset="1" style="stop-color:#787878"/>
	</linearGradient>
	<circle class="st8" cx="1133" cy="366" r="110"/>
	
		<linearGradient id="SVGID_10_" gradientUnits="userSpaceOnUse" x1="1022.9984" y1="401.9991" x2="1242.9983" y2="401.9991" gradientTransform="matrix(1 0 0 -1 0 768)">
		<stop  offset="0" style="stop-color:#D4AF37"/>
		<stop  offset="1" style="stop-color:#000000"/>
	</linearGradient>
	<path class="st9" d="M1133,257c29.1,0,56.5,11.3,77.1,31.9s31.9,48,31.9,77.1s-11.3,56.5-31.9,77.1s-48,31.9-77.1,31.9
		s-56.5-11.3-77.1-31.9s-31.9-48-31.9-77.1s11.3-56.5,31.9-77.1C1076.5,268.3,1103.9,257,1133,257 M1133,256
		c-60.8,0-110,49.2-110,110s49.2,110,110,110c60.8,0,110-49.2,110-110S1193.8,256,1133,256L1133,256z"/>
</g>
<g>
	
		<linearGradient id="SVGID_11_" gradientUnits="userSpaceOnUse" x1="1276.9983" y1="401.9991" x2="1496.9983" y2="401.9991" gradientTransform="matrix(1 0 0 -1 0 768)">
		<stop  offset="0" style="stop-color:#D4AF37"/>
		<stop  offset="0.4573" style="stop-color:#D2AE38"/>
		<stop  offset="0.6221" style="stop-color:#CBAA3D"/>
		<stop  offset="0.7395" style="stop-color:#C0A345"/>
		<stop  offset="0.8344" style="stop-color:#AF9951"/>
		<stop  offset="0.9157" style="stop-color:#998C61"/>
		<stop  offset="0.9865" style="stop-color:#7E7C74"/>
		<stop  offset="1" style="stop-color:#787878"/>
	</linearGradient>
	<circle class="st10" cx="1387" cy="366" r="110"/>
	
		<linearGradient id="SVGID_12_" gradientUnits="userSpaceOnUse" x1="1276.9983" y1="401.9991" x2="1496.9983" y2="401.9991" gradientTransform="matrix(1 0 0 -1 0 768)">
		<stop  offset="0" style="stop-color:#D4AF37"/>
		<stop  offset="1" style="stop-color:#000000"/>
	</linearGradient>
	<path class="st11" d="M1387,257c29.1,0,56.5,11.3,77.1,31.9s31.9,48,31.9,77.1s-11.3,56.5-31.9,77.1c-20.6,20.6-48,31.9-77.1,31.9
		s-56.5-11.3-77.1-31.9s-31.9-48-31.9-77.1s11.3-56.5,31.9-77.1C1330.5,268.3,1357.9,257,1387,257 M1387,256
		c-60.8,0-110,49.2-110,110s49.2,110,110,110c60.8,0,110-49.2,110-110S1447.8,256,1387,256L1387,256z"/>
</g>
<g>
	
		<linearGradient id="SVGID_13_" gradientUnits="userSpaceOnUse" x1="1530.9983" y1="401.9991" x2="1750.9983" y2="401.9991" gradientTransform="matrix(1 0 0 -1 0 768)">
		<stop  offset="0" style="stop-color:#D4AF37"/>
		<stop  offset="0.4573" style="stop-color:#D2AE38"/>
		<stop  offset="0.6221" style="stop-color:#CBAA3D"/>
		<stop  offset="0.7395" style="stop-color:#C0A345"/>
		<stop  offset="0.8344" style="stop-color:#AF9951"/>
		<stop  offset="0.9157" style="stop-color:#998C61"/>
		<stop  offset="0.9865" style="stop-color:#7E7C74"/>
		<stop  offset="1" style="stop-color:#787878"/>
	</linearGradient>
	<circle class="st12" cx="1641" cy="366" r="110"/>
	
		<linearGradient id="SVGID_14_" gradientUnits="userSpaceOnUse" x1="1530.9983" y1="401.9991" x2="1750.9983" y2="401.9991" gradientTransform="matrix(1 0 0 -1 0 768)">
		<stop  offset="0" style="stop-color:#D4AF37"/>
		<stop  offset="1" style="stop-color:#000000"/>
	</linearGradient>
	<path class="st13" d="M1641,257c29.1,0,56.5,11.3,77.1,31.9s31.9,48,31.9,77.1s-11.3,56.5-31.9,77.1s-48,31.9-77.1,31.9
		s-56.5-11.3-77.1-31.9s-31.9-48-31.9-77.1s11.3-56.5,31.9-77.1C1584.5,268.3,1611.9,257,1641,257 M1641,256
		c-60.8,0-110,49.2-110,110s49.2,110,110,110c60.8,0,110-49.2,110-110S1701.8,256,1641,256L1641,256z"/>
</g>
<g>
	
		<linearGradient id="SVGID_15_" gradientUnits="userSpaceOnUse" x1="1784.9983" y1="401.9991" x2="2004.9983" y2="401.9991" gradientTransform="matrix(1 0 0 -1 0 768)">
		<stop  offset="0" style="stop-color:#D4AF37"/>
		<stop  offset="0.4573" style="stop-color:#D2AE38"/>
		<stop  offset="0.6221" style="stop-color:#CBAA3D"/>
		<stop  offset="0.7395" style="stop-color:#C0A345"/>
		<stop  offset="0.8344" style="stop-color:#AF9951"/>
		<stop  offset="0.9157" style="stop-color:#998C61"/>
		<stop  offset="0.9865" style="stop-color:#7E7C74"/>
		<stop  offset="1" style="stop-color:#787878"/>
	</linearGradient>
	<circle class="st14" cx="1895" cy="366" r="110"/>
	
		<linearGradient id="SVGID_16_" gradientUnits="userSpaceOnUse" x1="1784.9983" y1="401.9991" x2="2004.9983" y2="401.9991" gradientTransform="matrix(1 0 0 -1 0 768)">
		<stop  offset="0" style="stop-color:#D4AF37"/>
		<stop  offset="1" style="stop-color:#000000"/>
	</linearGradient>
	<path class="st15" d="M1895,257c29.1,0,56.5,11.3,77.1,31.9s31.9,48,31.9,77.1s-11.3,56.5-31.9,77.1c-20.6,20.6-48,31.9-77.1,31.9
		s-56.5-11.3-77.1-31.9s-31.9-48-31.9-77.1s11.3-56.5,31.9-77.1C1838.5,268.3,1865.9,257,1895,257 M1895,256
		c-60.8,0-110,49.2-110,110s49.2,110,110,110c60.8,0,110-49.2,110-110S1955.8,256,1895,256L1895,256z"/>
</g>
<g>
	
		<linearGradient id="SVGID_17_" gradientUnits="userSpaceOnUse" x1="2038.9983" y1="401.9991" x2="2258.9983" y2="401.9991" gradientTransform="matrix(1 0 0 -1 0 768)">
		<stop  offset="0" style="stop-color:#D4AF37"/>
		<stop  offset="0.4573" style="stop-color:#D2AE38"/>
		<stop  offset="0.6221" style="stop-color:#CBAA3D"/>
		<stop  offset="0.7395" style="stop-color:#C0A345"/>
		<stop  offset="0.8344" style="stop-color:#AF9951"/>
		<stop  offset="0.9157" style="stop-color:#998C61"/>
		<stop  offset="0.9865" style="stop-color:#7E7C74"/>
		<stop  offset="1" style="stop-color:#787878"/>
	</linearGradient>
	<circle class="st16" cx="2149" cy="366" r="110"/>
	
		<linearGradient id="SVGID_18_" gradientUnits="userSpaceOnUse" x1="2038.9983" y1="401.9991" x2="2258.9983" y2="401.9991" gradientTransform="matrix(1 0 0 -1 0 768)">
		<stop  offset="0" style="stop-color:#D4AF37"/>
		<stop  offset="1" style="stop-color:#000000"/>
	</linearGradient>
	<path class="st17" d="M2149,257c29.1,0,56.5,11.3,77.1,31.9c20.6,20.6,31.9,48,31.9,77.1s-11.3,56.5-31.9,77.1
		c-20.6,20.6-48,31.9-77.1,31.9c-29.1,0-56.5-11.3-77.1-31.9c-20.6-20.6-31.9-48-31.9-77.1s11.3-56.5,31.9-77.1
		C2092.5,268.3,2119.9,257,2149,257 M2149,256c-60.8,0-110,49.2-110,110s49.2,110,110,110s110-49.2,110-110S2209.8,256,2149,256
		L2149,256z"/>
</g>
</svg>
